<?xml version="1.0" standalone="no"?>
<!DOCTYPE svg PUBLIC "-//W3C//DTD SVG 20010904//EN"
 "http://www.w3.org/TR/2001/REC-SVG-20010904/DTD/svg10.dtd">
<svg version="1.0" xmlns="http://www.w3.org/2000/svg"
 width="593.000000pt" height="593.000000pt" viewBox="0 0 593.000000 593.000000"
 preserveAspectRatio="xMidYMid meet">
<metadata>
Created by potrace 1.11, written by Peter Selinger 2001-2013
</metadata>
<g transform="translate(0.000000,593.000000) scale(0.100000,-0.100000)"
fill="#000000" stroke="none">
<path d="M3918 5125 c-2 -2 -47 -6 -100 -9 -53 -4 -107 -9 -120 -11 -13 -2
-63 -7 -113 -10 -49 -3 -110 -8 -135 -10 -25 -2 -76 -6 -115 -10 -38 -3 -90
-7 -115 -10 -25 -3 -79 -7 -120 -10 -41 -3 -100 -7 -130 -10 -153 -13 -189
-16 -235 -20 -27 -3 -81 -7 -120 -10 -38 -3 -92 -7 -120 -10 -111 -10 -164
-15 -240 -20 -44 -4 -96 -8 -115 -11 -19 -2 -73 -6 -120 -9 -47 -3 -101 -7
-120 -10 -19 -2 -75 -7 -125 -11 -49 -4 -101 -8 -115 -9 -14 -2 -37 -3 -51 -4
-28 -1 -37 -16 -122 -201 -19 -41 -46 -100 -60 -130 -14 -30 -36 -80 -50 -110
-14 -30 -42 -91 -63 -135 -21 -44 -38 -82 -39 -85 0 -3 -24 -54 -53 -114 -29
-60 -52 -110 -52 -112 0 -1 -29 -64 -65 -139 -36 -75 -65 -138 -65 -140 0 -2
-20 -46 -44 -97 -103 -219 -121 -259 -176 -378 -32 -69 -80 -174 -109 -233
-28 -60 -51 -111 -51 -113 0 -3 -22 -49 -49 -104 -45 -94 -47 -101 -33 -122 9
-13 18 -25 21 -28 3 -3 21 -27 40 -55 19 -27 49 -70 67 -95 19 -25 130 -180
248 -345 118 -165 248 -345 288 -399 40 -55 81 -113 92 -130 10 -17 21 -33 25
-36 4 -3 79 -106 167 -230 227 -317 380 -531 401 -559 10 -13 21 -28 24 -33 3
-5 30 -7 60 -4 30 3 90 8 134 11 44 3 100 7 125 10 78 7 163 15 230 20 36 3
92 7 125 10 33 2 92 7 130 10 39 3 95 7 125 10 30 3 82 7 115 10 33 2 85 7
115 9 30 3 89 8 130 11 41 3 95 7 120 9 70 7 234 21 365 31 142 11 323 25 375
30 19 2 76 6 125 10 50 4 95 12 101 18 6 7 86 176 179 377 93 201 188 408 213
460 24 52 58 124 74 160 17 36 43 92 58 125 15 33 40 87 56 120 39 86 96 209
132 285 16 36 41 90 55 120 14 30 43 93 65 140 129 274 181 393 176 401 -5 9
-199 283 -353 501 -42 58 -134 189 -205 290 -71 101 -142 201 -158 223 -23 31
-249 351 -368 522 -234 333 -285 401 -306 401 -13 0 -24 -2 -26 -3z"/>
</g>
</svg>
