<svg width="45" height="457" viewBox="0 0 45 457" fill="none" xmlns="http://www.w3.org/2000/svg">
<line x1="44" y1="34.0001" x2="1.00003" y2="34.0001" stroke="black" stroke-width="2" stroke-linecap="round"/>
<line x1="44" y1="1" x2="16" y2="1" stroke="black" stroke-opacity="0.5" stroke-width="2" stroke-linecap="round"/>
<line x1="44" y1="424" x2="1.00003" y2="424" stroke="black" stroke-width="2" stroke-linecap="round"/>
<line x1="44" y1="456" x2="16" y2="456" stroke="black" stroke-opacity="0.5" stroke-width="2" stroke-linecap="round"/>
<line x1="44" y1="164" x2="1.00003" y2="164" stroke="black" stroke-width="2" stroke-linecap="round"/>
<line x1="44" y1="99.0002" x2="16" y2="99.0002" stroke="black" stroke-opacity="0.5" stroke-width="2" stroke-linecap="round"/>
<line x1="44" y1="228.5" x2="16" y2="228.5" stroke="black" stroke-opacity="0.5" stroke-width="2" stroke-linecap="round"/>
<line x1="44" y1="358.5" x2="16" y2="358.5" stroke="black" stroke-opacity="0.5" stroke-width="2" stroke-linecap="round"/>
<line x1="44" y1="131.5" x2="16" y2="131.5" stroke="black" stroke-opacity="0.5" stroke-width="2" stroke-linecap="round"/>
<line x1="44" y1="261" x2="16" y2="261" stroke="black" stroke-opacity="0.5" stroke-width="2" stroke-linecap="round"/>
<line x1="44" y1="391" x2="16" y2="391" stroke="black" stroke-opacity="0.5" stroke-width="2" stroke-linecap="round"/>
<line x1="44" y1="66.5001" x2="16" y2="66.5001" stroke="black" stroke-opacity="0.5" stroke-width="2" stroke-linecap="round"/>
<line x1="44" y1="196" x2="16" y2="196" stroke="black" stroke-opacity="0.5" stroke-width="2" stroke-linecap="round"/>
<line x1="44" y1="326" x2="16" y2="326" stroke="black" stroke-opacity="0.5" stroke-width="2" stroke-linecap="round"/>
<line x1="44" y1="294" x2="1.00003" y2="294" stroke="black" stroke-width="2" stroke-linecap="round"/>
</svg>
